<svg width="93" height="97" viewBox="0 0 93 97" fill="none" xmlns="http://www.w3.org/2000/svg">
<g clip-path="url(#clip0_440_3783)">
<path d="M7.5113 34.9557L9.30138 36.6401L8.88867 37.539L3.22446 32.1334L3.69932 31.0784L11.4662 31.8934L11.0482 32.8268L8.60169 32.5642L7.5113 34.9557ZM7.84413 32.4257L5.60317 32.195C5.09479 32.148 4.65641 32.0554 4.2199 31.9737L4.21283 31.9973C4.56227 32.2841 4.92437 32.58 5.2686 32.9014L6.90483 34.4668L7.84413 32.4257Z" fill="#BE7E00"/>
<path d="M11.1328 31.5026L9.84404 27.7516C9.73927 27.4004 9.64009 27.0817 9.54426 26.7177L9.51893 26.6997L7.94216 29.1075L7.28915 28.6714L9.51956 25.2785L10.0116 25.6192L11.2803 29.3178C11.4066 29.6653 11.5077 29.9948 11.6017 30.348L11.6143 30.357L13.3251 27.7583L13.9655 28.1854L11.594 31.7927L11.1328 31.5026Z" fill="#BE7E00"/>
<path d="M16.1126 23.4639C16.5202 23.8303 16.895 24.1352 17.228 24.3913L16.6714 25.0351L15.98 24.5049L15.9603 24.5194C16.1199 24.9956 16.166 25.7821 15.545 26.5041C14.9974 27.1352 13.9946 27.5759 12.5927 26.3396L10.2599 24.2783L10.8916 23.5545L13.1049 25.5019C13.8656 26.177 14.5804 26.39 15.1567 25.7316C15.5844 25.2441 15.541 24.6026 15.3368 24.1901C15.2693 24.0562 15.1549 23.908 15.0245 23.7961L12.574 21.632L13.2057 20.9082L16.1126 23.4639Z" fill="#BE7E00"/>
<path d="M15.6601 20.8894C15.2466 20.4233 14.8785 20.0277 14.5287 19.6738L15.1541 19.1076L15.8739 19.868L15.9026 19.8407C15.6048 19.1422 15.7356 18.4148 16.2178 17.9851C16.2948 17.9159 16.3648 17.8704 16.4456 17.8229L17.0514 18.5022C16.9598 18.5515 16.8809 18.6098 16.7841 18.6935C16.2733 19.1505 16.2612 19.8575 16.6469 20.485C16.7214 20.5953 16.7997 20.7273 16.9104 20.8538L18.7985 22.9802L18.0852 23.6173L15.6601 20.8894Z" fill="#BE7E00"/>
<path d="M18.1694 14.0017L18.9718 13.4948L22.4912 19.1007L25.1587 17.412L25.588 18.0992L22.1181 20.2949L18.1694 14.0017Z" fill="#BE7E00"/>
<path d="M24.0834 11.2743C24.2436 11.5601 24.1484 11.9121 23.7999 12.0839C23.4927 12.2373 23.1586 12.1044 23.0199 11.8149C22.8668 11.5055 22.9728 11.1517 23.2781 10.9873C23.6069 10.8302 23.9302 10.9649 24.0834 11.2743ZM26.1817 17.8627L23.795 13.0917L24.6555 12.6643L27.0422 17.4353L26.1817 17.8627Z" fill="#BE7E00"/>
<path d="M28.2768 16.854L26.5238 12.6008L25.8282 12.8881L25.5558 12.2075L26.2406 11.9221L26.1455 11.6923C25.8604 11.0027 25.7517 10.3053 25.9988 9.73694C26.1979 9.27757 26.587 8.95342 27.0022 8.78144C27.3131 8.64974 27.6174 8.6087 27.8174 8.60793L27.9785 9.35234C27.8217 9.34569 27.6147 9.37005 27.3667 9.47976C26.61 9.79987 26.6937 10.5464 27.0008 11.2993L27.1123 11.5599L28.2949 11.066L28.5782 11.7446L27.3956 12.2386L29.1485 16.4918L28.2768 16.854Z" fill="#BE7E00"/>
<path d="M30.451 13.3255C30.844 14.5784 31.7934 14.863 32.7143 14.593C33.3816 14.4001 33.7406 14.1595 34.0436 13.9172L34.395 14.5395C34.1136 14.778 33.6057 15.1225 32.8017 15.3613C31.2351 15.8204 30.0017 15.0475 29.5476 13.503C29.0934 11.9585 29.6396 10.4772 31.1217 10.0437C32.7837 9.55704 33.6582 10.8951 33.9304 11.833C33.9856 12.025 34.0117 12.1772 34.0285 12.275L30.451 13.3255ZM32.9685 11.8639C32.81 11.2645 32.2879 10.4254 31.2393 10.7285C30.3076 11.0003 30.144 11.9907 30.2705 12.6627L32.9685 11.8639Z" fill="#BE7E00"/>
<path d="M40.6233 11.568L39.893 13.9201L38.9057 13.9329L41.2923 6.46266L42.4453 6.44376L45.0924 13.8331L44.0727 13.8515L43.2392 11.5218L40.6233 11.568ZM43.0349 10.7848L42.28 8.65408C42.1077 8.16894 41.988 7.73072 41.8702 7.30337L41.8486 7.30708C41.7467 7.74977 41.6359 8.20518 41.5016 8.65343L40.8171 10.8186L43.0349 10.7848Z" fill="#BE7E00"/>
<path d="M49.5047 9.09254L49.4156 9.86872L47.1329 9.58921L46.5866 14.114L45.6436 13.9962L46.279 8.69518L49.5047 9.09254Z" fill="#BE7E00"/>
<path d="M50.3197 12.1531C50.0281 13.434 50.7188 14.1547 51.6481 14.3868C52.3211 14.551 52.7517 14.533 53.1405 14.4663L53.1429 15.1931C52.7776 15.267 52.1724 15.3038 51.3478 15.0985C49.7582 14.7112 49.0676 13.4087 49.444 11.8447C49.8203 10.2807 51.0378 9.27725 52.5355 9.64676C54.219 10.0627 54.3041 11.6594 54.0791 12.6155C54.0352 12.8133 53.9712 12.9585 53.9411 13.042L50.3197 12.1531ZM53.2331 12.1565C53.3864 11.5595 53.3607 10.5681 52.3033 10.302C51.3524 10.0736 50.7281 10.841 50.4941 11.4854L53.2331 12.1565Z" fill="#BE7E00"/>
<path d="M56.9373 11.1291L56.1328 13.1135L58.4645 14.0672L59.2672 12.0719L60.1522 12.4347L58.1543 17.3765L57.2693 17.0137L58.175 14.777L55.8452 13.8343L54.9395 16.071L54.0545 15.7082L56.0523 10.7664L56.9373 11.1291Z" fill="#BE7E00"/>
<path d="M64.8568 15.096L64.4716 15.7664L63.0397 14.938L60.7838 18.8947L59.9576 18.4211L62.2135 14.4644L60.7816 13.636L61.1669 12.9657L64.8568 15.096Z" fill="#BE7E00"/>
<path d="M65.6239 22.0254C65.339 21.9848 64.7848 21.8002 64.2111 21.3728C62.9244 20.4187 62.7317 18.9077 63.6951 17.5898C64.6693 16.27 66.2658 15.9848 67.6557 17.0218C68.1154 17.3681 68.4313 17.7838 68.5644 18.0407L67.9437 18.5053C67.836 18.2664 67.6143 17.9464 67.1944 17.6381C66.2136 16.9113 65.1471 17.2398 64.5001 18.1342C63.769 19.1212 63.9556 20.2082 64.8079 20.8339C65.2531 21.1603 65.6267 21.264 65.9153 21.3264L65.6239 22.0254Z" fill="#BE7E00"/>
<path d="M72.3863 21.3908L71.8599 21.9511L70.6622 20.8028L67.5375 24.103L66.8453 23.4385L69.97 20.1383L68.7722 18.99L69.2986 18.4297L72.3863 21.3908Z" fill="#BE7E00"/>
<path d="M73.0491 22.2061C73.337 22.4587 73.8229 22.9572 74.2167 23.4379C74.7793 24.1245 75.6028 25.3595 74.6883 26.1207C74.1827 26.5432 73.5477 26.406 73.0589 26.02L73.0392 26.0345C73.445 26.7146 73.4691 27.4377 72.8738 27.9204C71.8033 28.8091 70.5545 27.5576 69.8921 26.7426C69.5128 26.2818 69.1584 25.772 68.9967 25.5424L73.0491 22.2061ZM70.0616 25.8519C70.2125 26.0834 70.3288 26.2425 70.5266 26.4882C70.935 26.9888 71.6704 27.6458 72.2638 27.1523C72.8592 26.6697 72.4928 25.9605 71.9138 25.2431L71.4638 24.6937L70.0616 25.8519ZM71.9642 24.3057L72.4269 24.864C72.8789 25.4243 73.5084 25.8533 73.9853 25.4581C74.3942 25.1194 74.2938 24.5995 73.6768 23.855C73.479 23.6093 73.3322 23.4666 73.1709 23.3041L71.9642 24.3057Z" fill="#BE7E00"/>
<path d="M76.9231 32.2724C75.2409 33.2885 73.8131 32.5489 73.1453 31.4439C72.4101 30.205 72.7418 28.7046 74.1835 27.8417C75.7061 26.9313 77.197 27.3915 77.9487 28.6612C78.7401 29.9687 78.3146 31.4405 76.9231 32.2724ZM74.7145 28.6681C73.7163 29.2646 73.3151 30.2958 73.7992 31.1079C74.2687 31.9 75.3741 32.0571 76.3903 31.4351C77.1569 30.979 77.9115 29.9991 77.3201 29.0152C76.7396 28.0295 75.5799 28.1391 74.7145 28.6681Z" fill="#BE7E00"/>
<path d="M83.0987 34.8271L80.1603 35.7792L81.2597 39.2046L84.1982 38.2526L84.4901 39.176L77.4532 41.447L77.1612 40.5236L80.4576 39.4542L79.3581 36.0287L76.0618 37.0981L75.7717 36.1856L82.8087 33.9146L83.0987 34.8271Z" fill="#BE7E00"/>
<path d="M80.1834 42.7135C78.8982 42.9341 78.4855 43.8329 78.6389 44.7913C78.7456 45.4779 78.9245 45.8724 79.1265 46.207L78.4722 46.4759C78.274 46.1631 78.0004 45.6058 77.8784 44.7652C77.6328 43.1401 78.5612 42.0073 80.1436 41.7692C81.7259 41.5311 83.1123 42.289 83.3412 43.8162C83.6036 45.5391 82.1644 46.2226 81.1995 46.3658C81.0051 46.3992 80.8483 46.3925 80.7492 46.3984L80.1834 42.7135ZM81.2822 45.4229C81.8907 45.3408 82.8 44.9385 82.6369 43.8588C82.4925 42.8877 81.5412 42.5923 80.8675 42.6184L81.2822 45.4229Z" fill="#BE7E00"/>
<path d="M83.6542 51.7296L79.076 51.7435L79.0702 52.2928L76.6718 52.2457L76.6745 51.4844L78.3571 51.4417L78.3461 47.7511L76.6594 47.7049L76.6621 46.9436L79.0672 46.9L79.0771 47.3458C79.4172 47.5784 79.7803 47.751 80.1685 47.8746C80.8274 48.086 81.5432 48.1757 82.2892 48.1819L83.6675 48.1803L83.6542 51.7296ZM82.0347 49.0313C81.3338 49.0285 80.6504 48.9332 80.0656 48.7651C79.7028 48.6595 79.3758 48.503 79.0793 48.3301L79.0902 50.7899L82.9243 50.7807L82.9121 49.0261L82.0347 49.0313Z" fill="#BE7E00"/>
<path d="M83.4641 53.6651C83.4736 54.0439 83.4381 54.7438 83.3444 55.3641C83.2181 56.2473 82.8771 57.6934 81.7032 57.5256C81.054 57.4357 80.7246 56.8768 80.6741 56.2589L80.6506 56.2517C80.4371 57.0157 79.923 57.5179 79.1602 57.4139C77.7807 57.2143 77.8441 55.4467 77.9875 54.4038C78.0759 53.818 78.193 53.2049 78.2563 52.9255L83.4641 53.6651ZM78.772 53.9223C78.6962 54.1927 78.6631 54.3886 78.6252 54.686C78.5353 55.328 78.5483 56.3105 79.3129 56.4254C80.0757 56.5294 80.338 55.7906 80.4695 54.8729L80.5717 54.1728L78.772 53.9223ZM81.2011 54.2774L81.1027 54.9992C81.0024 55.7102 81.1114 56.4747 81.7263 56.5594C82.2511 56.6371 82.5675 56.2136 82.6915 55.2524C82.7365 54.9313 82.7353 54.7301 82.752 54.5035L81.2011 54.2774Z" fill="#BE7E00"/>
<path d="M82.3411 60.3373L80.1949 59.6874C79.3863 59.4458 78.8809 59.2864 78.1694 59.0281L78.1642 59.0626C78.6825 59.5554 78.9868 59.8389 79.4745 60.3482L81.6291 62.7309L81.3039 63.8162L76.2284 62.2929L76.488 61.4092L78.645 62.0571C79.477 62.3059 79.9031 62.4566 80.7084 62.7435L80.7136 62.7091C80.1574 62.1891 79.8203 61.8442 79.387 61.3927C78.7394 60.6646 77.9273 59.8194 77.1963 58.9937L77.5125 57.9212L82.6007 59.4535L82.3411 60.3373Z" fill="#BE7E00"/>
<path d="M80.4565 66.0661L77.6017 66.6009L77.5109 66.7843L79.5803 67.8279L79.1671 68.6598L77.0977 67.6162L77.0159 67.7869L78.3107 70.4071L77.8157 71.4097L76.5836 68.443C76.1444 69.1227 75.515 69.3427 74.6207 69.25C74.0761 69.1868 73.4935 69.0966 73.0268 69.0984L73.456 68.2302C73.8199 68.2125 74.2762 68.2796 74.7649 68.3412C75.6916 68.4283 76.1366 68.1057 76.4518 67.4809L76.5267 67.3338L74.423 66.2849L74.8361 65.453L76.9398 66.5019L77.0128 66.3439C77.3422 65.6719 77.2958 65.1427 76.6665 64.4562C76.3363 64.0876 76.0263 63.7715 75.8065 63.4624L76.2178 62.6196C76.5065 63.0065 76.9216 63.4164 77.2897 63.812C77.9064 64.4895 78.1264 65.1232 77.8462 65.8875L80.9425 65.0762L80.4565 66.0661Z" fill="#BE7E00"/>
<path d="M76.4922 73.2256L74.6951 71.8892C74.0182 71.3788 73.5965 71.0596 73.0135 70.5778L72.9957 70.6032C73.3165 71.2419 73.5133 71.6109 73.7929 72.2679L75.0158 75.2469L74.3491 76.1558L70.08 72.9836L70.6306 72.2401L72.4403 73.5854C73.1406 74.103 73.4901 74.3899 74.1509 74.9366L74.1688 74.9112C73.8189 74.2328 73.609 73.7876 73.366 73.2139C73.0004 72.3144 72.5255 71.2322 72.1177 70.2168L72.7755 69.3207L77.0446 72.4929L76.4922 73.2256Z" fill="#BE7E00"/>
<path d="M73.0512 77.6656L72.2038 78.4936L69.6434 77.2436C69.2765 77.0492 68.6566 76.7416 68.2752 76.5273L68.2555 76.5419C68.4414 76.9128 68.8264 77.7307 69.0784 78.2917L70.0791 80.5592L69.2228 81.3999L65.2542 77.8404L65.9098 77.1908L67.7651 78.9311C68.1871 79.3174 68.689 79.7796 69.1546 80.2255L69.1725 80.2001C68.9392 79.7478 68.7369 79.3462 68.3899 78.5553L67.2463 75.9095L67.7516 75.42L70.2524 76.6467C70.7169 76.8914 71.4184 77.2857 71.8631 77.5451L71.8918 77.5178C71.4674 77.0535 70.9995 76.5296 70.6221 76.0797L68.9623 74.1827L69.6 73.5585L73.0512 77.6656Z" fill="#BE7E00"/>
<path d="M62.2171 83.2073C61.103 81.5747 61.7393 80.1004 62.8035 79.3694C63.986 78.551 65.4956 78.7954 66.4461 80.1875C67.4547 81.6592 67.0836 83.1888 65.8705 84.0236C64.618 84.8876 63.1367 84.5489 62.2171 83.2073ZM65.6567 80.7706C65.0024 79.8088 63.9517 79.452 63.1657 79.9898C62.4102 80.5111 62.3231 81.6226 63.0046 82.6134C63.5117 83.3655 64.5302 84.0523 65.474 83.3979C66.4198 82.7544 66.222 81.6023 65.6567 80.7706Z" fill="#BE7E00"/>
<path d="M56.6832 83.1617C56.8548 82.9309 57.2721 82.5124 57.9081 82.2018C59.3417 81.4857 60.7664 82.0132 61.4849 83.4788C62.2162 84.9533 61.7407 86.5231 60.1831 87.294C59.6711 87.5498 59.1546 87.6496 58.8645 87.6435L58.732 86.8718C59.0005 86.8816 59.3715 86.8403 59.8421 86.6029C60.9272 86.0586 61.1171 84.963 60.6337 83.9606C60.0885 82.8569 59.0415 82.5219 58.1002 82.9968C57.6079 83.238 57.3466 83.529 57.1534 83.7636L56.6832 83.1617Z" fill="#BE7E00"/>
<path d="M54.1365 89.507L53.889 88.7774L55.4515 88.2295L53.9558 83.9209L54.8585 83.6093L56.3541 87.9179L57.9166 87.3699L58.1642 88.0995L54.1365 89.507Z" fill="#BE7E00"/>
<path d="M52.2162 89.9821L51.7708 87.7759C51.6055 86.9427 51.5051 86.4228 51.398 85.6691L51.3656 85.6747C51.1841 86.366 51.0747 86.7652 50.8571 87.4404L49.7867 90.4663L48.6799 90.6898L47.6148 85.457L48.5164 85.2686L48.9637 87.4857C49.1327 88.3406 49.2092 88.7863 49.3331 89.6378L49.3655 89.6322C49.5612 88.8937 49.7025 88.4218 49.8919 87.8411C50.2253 86.9334 50.588 85.8082 50.9549 84.7717L52.0401 84.5519L53.1051 89.7847L52.2162 89.9821Z" fill="#BE7E00"/>
<path d="M36.8025 12.045C37.1544 11.9846 37.3904 11.6485 37.3296 11.2943C37.2688 10.9402 36.9343 10.702 36.5824 10.7624C36.2305 10.8229 35.9945 11.1589 36.0553 11.5131C36.1161 11.8673 36.4506 12.1054 36.8025 12.045Z" fill="#BE7E00"/>
</g>
<defs>
<clipPath id="clip0_440_3783">
<rect width="78.9033" height="84.473" fill="white" transform="translate(0 13.3496) rotate(-9.74076)"/>
</clipPath>
</defs>
</svg>
