<svg width="28" height="28" viewBox="0 0 28 28" fill="none" xmlns="http://www.w3.org/2000/svg">
<path fill-rule="evenodd" clip-rule="evenodd" d="M16.554 27.2059H21.147C24.987 27.2059 28.0741 24.1188 27.9988 20.2788V6.87644C27.9988 3.11172 24.9117 0.0246582 21.147 0.0246582H7.7446C3.97989 0.0246582 0.892822 3.11172 0.892822 6.87644V20.2788C0.892822 24.0435 3.97989 27.1306 7.7446 27.1306H12.3376L12.3382 27.1304V17.4176H8.94994V13.5776H12.3382V10.6411C12.3382 7.25289 14.3711 5.44583 17.4582 5.44583C18.9641 5.44583 20.47 5.67171 20.47 5.67171V9.05996H18.8135C17.157 9.05996 16.63 10.1141 16.63 11.1682V13.6529H20.3194L19.717 17.4929H16.5547V27.1306H16.3432L16.554 27.2059Z" fill="white"/>
</svg>
