<svg width="32" height="42" viewBox="0 0 32 42" fill="none" xmlns="http://www.w3.org/2000/svg">
<path d="M0 4.66679C0 2.4669 0 1.36696 0.683418 0.68354C1.36684 0.00012207 2.46678 0.00012207 4.66667 0.00012207H27.2222C29.4221 0.00012207 30.5221 0.00012207 31.2055 0.68354C31.8889 1.36696 31.8889 2.4669 31.8889 4.66679V32.4067C31.8889 36.5777 31.8889 38.6631 30.5762 39.3017C29.2636 39.9402 27.6229 38.6529 24.3415 36.0781L18.8252 31.7498C17.4421 30.6646 16.7506 30.122 15.9444 30.122C15.1383 30.122 14.4468 30.6646 13.0637 31.7498L7.54739 36.0781C4.26599 38.6529 2.6253 39.9402 1.31265 39.3017C0 38.6631 0 36.5777 0 32.4067V4.66679Z" fill="#FFF9EC"/>
<mask id="mask0_440_2999" style="mask-type:alpha" maskUnits="userSpaceOnUse" x="0" y="0" width="32" height="40">
<path d="M0 4.66667C0 2.46678 0 1.36684 0.683418 0.683418C1.36684 0 2.46678 0 4.66667 0H27.2222C29.4221 0 30.5221 0 31.2055 0.683418C31.8889 1.36684 31.8889 2.46678 31.8889 4.66667V32.4066C31.8889 36.5776 31.8889 38.663 30.5762 39.3016C29.2636 39.9401 27.6229 38.6527 24.3415 36.078L18.8252 31.7497C17.4421 30.6645 16.7506 30.1219 15.9444 30.1219C15.1383 30.1219 14.4468 30.6645 13.0637 31.7497L7.54739 36.078C4.26599 38.6527 2.6253 39.9401 1.31265 39.3016C0 38.663 0 36.5776 0 32.4066V4.66667Z" fill="#D0C682"/>
</mask>
<g mask="url(#mask0_440_2999)">
<path d="M13.9729 23.5577C13.1381 23.5577 12.4153 23.405 11.8045 23.0996C11.1936 22.7738 10.7253 22.3259 10.3995 21.7558C10.0941 21.1857 9.94141 20.5239 9.94141 19.7706C9.94141 18.8747 10.145 18.1417 10.5522 17.5716C10.9798 17.0015 11.5194 16.5433 12.171 16.1972C12.8225 15.851 13.5046 15.566 14.2172 15.342C14.9503 15.0977 15.6425 14.8737 16.2941 14.6701C16.9456 14.4461 17.475 14.1916 17.8823 13.9066C18.3098 13.6215 18.5236 13.2448 18.5236 12.7765V10.8829C18.5236 10.0278 18.3913 9.3762 18.1266 8.92826C17.8823 8.48031 17.5463 8.18507 17.1187 8.04255C16.6911 7.87966 16.2126 7.79821 15.6833 7.79821C15.1742 7.79821 14.6245 7.86948 14.034 8.012C13.4639 8.15453 13.0058 8.44977 12.6596 8.89772C13.0465 8.97916 13.3824 9.18277 13.6675 9.50855C13.9526 9.83433 14.0951 10.2517 14.0951 10.7608C14.0951 11.2698 13.9322 11.677 13.6064 11.9824C13.2806 12.2675 12.8632 12.41 12.3542 12.41C11.7637 12.41 11.326 12.2268 11.0409 11.8603C10.7762 11.4734 10.6439 11.0458 10.6439 10.5775C10.6439 10.0481 10.7762 9.62054 11.0409 9.29476C11.3056 8.96898 11.6416 8.66356 12.0488 8.37851C12.5171 8.05273 13.1177 7.77785 13.8507 7.55388C14.6041 7.30955 15.4491 7.18738 16.3857 7.18738C17.2205 7.18738 17.9332 7.28918 18.5236 7.49279C19.1141 7.67604 19.6028 7.95092 19.9896 8.31742C20.519 8.80609 20.8652 9.40674 21.0281 10.1194C21.1909 10.8117 21.2724 11.6465 21.2724 12.6238V21.1144C21.2724 21.6234 21.3437 21.9899 21.4862 22.2139C21.6491 22.4379 21.8934 22.5499 22.2192 22.5499C22.4432 22.5499 22.657 22.499 22.8606 22.3972C23.0642 22.2954 23.3085 22.1325 23.5936 21.9085L23.9295 22.4277C23.5019 22.7535 23.0947 23.0284 22.7079 23.2523C22.321 23.4559 21.8018 23.5577 21.1502 23.5577C20.5598 23.5577 20.0711 23.4559 19.6842 23.2523C19.2974 23.0487 19.0021 22.7535 18.7985 22.3666C18.6153 21.9594 18.5236 21.4504 18.5236 20.8395C17.9739 21.7558 17.3121 22.4379 16.5384 22.8858C15.7851 23.3338 14.9299 23.5577 13.9729 23.5577ZM15.0724 22.3361C15.7443 22.3361 16.3654 22.1426 16.9355 21.7558C17.5259 21.3689 18.0553 20.7886 18.5236 20.0149V14.0287C18.2793 14.3749 17.923 14.6701 17.4547 14.9144C16.9864 15.1384 16.4773 15.3726 15.9276 15.6169C15.3778 15.8409 14.8484 16.1157 14.3394 16.4415C13.8507 16.7469 13.4435 17.1542 13.1177 17.6632C12.792 18.1722 12.6291 18.834 12.6291 19.6484C12.6291 20.4629 12.8429 21.1144 13.2705 21.6031C13.7184 22.0917 14.3191 22.3361 15.0724 22.3361Z" fill="#D3C274"/>
</g>
</svg>
