<svg width="17" height="20" viewBox="0 0 17 20" fill="none" xmlns="http://www.w3.org/2000/svg">
<path fill-rule="evenodd" clip-rule="evenodd" d="M16.586 4.28109C16.186 1.80621 13.8554 0.124209 11.3805 0.524238C10.5936 0.65143 9.98167 1.27698 9.87183 2.06649L9.37895 5.60889C9.27542 6.35292 9.61895 7.08832 10.256 7.48644L10.8672 7.86843C11.1864 8.06797 11.3637 8.43829 11.2791 8.80508C10.8416 10.7002 9.65076 12.3502 7.98998 13.3624C7.66853 13.5583 7.26121 13.5067 6.97125 13.2666L6.41616 12.8069C5.83763 12.3277 5.03146 12.2334 4.35793 12.566L1.15119 14.1498C0.436486 14.5028 0.0355818 15.2806 0.162773 16.0675C0.562803 18.5424 2.89338 20.2244 5.36826 19.8244L6.2456 19.6826C13.1509 18.5664 17.844 12.0638 16.7278 5.15843L16.586 4.28109Z" fill="white"/>
</svg>
