<svg width="101" height="105" viewBox="0 0 101 105" fill="none" xmlns="http://www.w3.org/2000/svg">
<g clip-path="url(#clip0_440_4350)">
<path d="M8.16394 37.9935L10.1096 39.8243L9.661 40.8012L3.50456 34.9259L4.02068 33.7792L12.4625 34.6651L12.0082 35.6795L9.34908 35.3941L8.16394 37.9935ZM8.52568 35.2436L6.08998 34.9928C5.53742 34.9417 5.06095 34.8411 4.58651 34.7523L4.57882 34.7779C4.95862 35.0897 5.35219 35.4114 5.72633 35.7606L7.50475 37.462L8.52568 35.2436Z" fill="white"/>
<path d="M12.1002 34.2403L10.6994 30.1633C10.5855 29.7815 10.4777 29.4352 10.3736 29.0396L10.346 29.02L8.63224 31.6371L7.92249 31.163L10.3467 27.4753L10.8816 27.8456L12.2605 31.8656C12.3978 32.2433 12.5076 32.6015 12.6098 32.9853L12.6235 32.9951L14.483 30.1706L15.179 30.6348L12.6014 34.5556L12.1002 34.2403Z" fill="white"/>
<path d="M17.5129 25.5029C17.9558 25.9011 18.3632 26.2325 18.7252 26.5109L18.1202 27.2107L17.3687 26.6343L17.3473 26.6502C17.5207 27.1677 17.5708 28.0226 16.8959 28.8073C16.3007 29.4933 15.2107 29.9723 13.6871 28.6285L11.1515 26.3881L11.8382 25.6014L14.2437 27.7181C15.0706 28.4518 15.8474 28.6833 16.4738 27.9676C16.9387 27.4378 16.8915 26.7406 16.6696 26.2922C16.5962 26.1467 16.4719 25.9856 16.3302 25.864L13.6667 23.5118L14.3533 22.7251L17.5129 25.5029Z" fill="white"/>
<path d="M17.0207 22.7047C16.5713 22.1981 16.1712 21.7681 15.7909 21.3834L16.4708 20.7681L17.2531 21.5945L17.2843 21.5649C16.9606 20.8056 17.1028 20.015 17.6268 19.548C17.7106 19.4728 17.7867 19.4233 17.8745 19.3717L18.533 20.11C18.4334 20.1636 18.3476 20.227 18.2424 20.318C17.6872 20.8146 17.6741 21.5831 18.0933 22.2652C18.1743 22.385 18.2593 22.5285 18.3796 22.666L20.4319 24.9771L19.6565 25.6697L17.0207 22.7047Z" fill="white"/>
<path d="M19.7486 15.2186L20.6207 14.6676L24.446 20.7607L27.3453 18.9252L27.8119 19.6721L24.0405 22.0587L19.7486 15.2186Z" fill="white"/>
<path d="M26.1764 12.2542C26.3506 12.5649 26.2471 12.9475 25.8683 13.1341C25.5344 13.3009 25.1712 13.1565 25.0206 12.8418C24.8541 12.5055 24.9693 12.1209 25.3012 11.9423C25.6585 11.7715 26.0099 11.9179 26.1764 12.2542ZM28.457 19.4152L25.863 14.2296L26.7983 13.765L29.3924 18.9506L28.457 19.4152Z" fill="white"/>
<path d="M30.7341 18.3188L28.8288 13.696L28.0728 14.0082L27.7766 13.2685L28.5209 12.9583L28.4176 12.7085C28.1077 11.959 27.9896 11.2009 28.2582 10.5832C28.4746 10.0839 28.8975 9.7316 29.3488 9.54467C29.6867 9.40153 30.0174 9.35692 30.2348 9.35609L30.4099 10.1652C30.2395 10.158 30.0145 10.1844 29.7449 10.3037C28.9225 10.6516 29.0134 11.463 29.3473 12.2813L29.4684 12.5646L30.7538 12.0277L31.0617 12.7654L29.7763 13.3023L31.6816 17.925L30.7341 18.3188Z" fill="white"/>
<path d="M33.0975 14.4836C33.5246 15.8454 34.5565 16.1547 35.5574 15.8613C36.2828 15.6516 36.6729 15.3901 37.0023 15.1268L37.3842 15.8031C37.0783 16.0624 36.5263 16.4368 35.6524 16.6963C33.9497 17.1954 32.6091 16.3553 32.1155 14.6765C31.6219 12.9978 32.2156 11.3878 33.8265 10.9167C35.6329 10.3877 36.5834 11.842 36.8793 12.8615C36.9392 13.0701 36.9676 13.2355 36.9859 13.3418L33.0975 14.4836ZM35.8337 12.895C35.6614 12.2435 35.094 11.3315 33.9542 11.661C32.9416 11.9564 32.7638 13.0328 32.9013 13.7633L35.8337 12.895Z" fill="white"/>
<path d="M44.1538 12.5733L43.3601 15.1298L42.287 15.1437L44.8809 7.0243L46.1342 7.00376L49.0113 15.0353L47.903 15.0553L46.997 12.523L44.1538 12.5733ZM46.7749 11.722L45.9544 9.40616C45.7672 8.87885 45.6371 8.40255 45.5091 7.93807L45.4856 7.9421C45.3749 8.42326 45.2544 8.91825 45.1084 9.40545L44.3644 11.7588L46.7749 11.722Z" fill="white"/>
<path d="M53.8071 9.88275L53.7102 10.7264L51.2292 10.4226L50.6354 15.3406L49.6104 15.2125L50.301 9.45087L53.8071 9.88275Z" fill="white"/>
<path d="M54.6927 13.2092C54.3758 14.6014 55.1266 15.3846 56.1366 15.6369C56.8681 15.8154 57.336 15.7959 57.7586 15.7233L57.7613 16.5134C57.3642 16.5937 56.7065 16.6336 55.8102 16.4105C54.0824 15.9895 53.3318 14.5738 53.7409 12.8739C54.15 11.174 55.4733 10.0834 57.1011 10.485C58.9309 10.9371 59.0233 12.6725 58.7788 13.7118C58.7311 13.9267 58.6615 14.0846 58.6288 14.1753L54.6927 13.2092ZM57.8594 13.2129C58.0259 12.564 57.998 11.4864 56.8487 11.1972C55.8152 10.949 55.1367 11.783 54.8823 12.4834L57.8594 13.2129Z" fill="white"/>
<path d="M61.8854 12.0963L61.0109 14.2531L63.5453 15.2896L64.4177 13.121L65.3796 13.5153L63.2081 18.8866L62.2462 18.4923L63.2306 16.0612L60.6983 15.0365L59.7139 17.4676L58.752 17.0733L60.9234 11.702L61.8854 12.0963Z" fill="white"/>
<path d="M70.4929 16.408L70.0742 17.1366L68.5179 16.2363L66.0659 20.5368L65.1679 20.0221L67.6199 15.7215L66.0636 14.8212L66.4823 14.0925L70.4929 16.408Z" fill="white"/>
<path d="M71.327 23.9394C71.0173 23.8953 70.4149 23.6947 69.7914 23.2301C68.3929 22.1932 68.1835 20.5508 69.2306 19.1184C70.2894 17.6839 72.0246 17.3739 73.5353 18.501C74.0349 18.8774 74.3784 19.3292 74.523 19.6085L73.8484 20.1135C73.7313 19.8538 73.4903 19.506 73.034 19.1708C71.9679 18.3809 70.8087 18.738 70.1055 19.71C69.3109 20.7829 69.5137 21.9643 70.4401 22.6444C70.9239 22.9992 71.33 23.1119 71.6437 23.1797L71.327 23.9394Z" fill="white"/>
<path d="M78.6767 23.2496L78.1046 23.8586L76.8028 22.6105L73.4066 26.1975L72.6542 25.4753L76.0504 21.8883L74.7486 20.6402L75.3207 20.0312L78.6767 23.2496Z" fill="white"/>
<path d="M79.3973 24.1359C79.7103 24.4105 80.2383 24.9523 80.6663 25.4747C81.2778 26.2211 82.1729 27.5633 81.179 28.3907C80.6294 28.8499 79.9392 28.7008 79.408 28.2812L79.3865 28.297C79.8276 29.0362 79.8538 29.8222 79.2067 30.3468C78.0433 31.3127 76.6859 29.9525 75.9659 29.0667C75.5537 28.5658 75.1685 28.0117 74.9928 27.7621L79.3973 24.1359ZM76.1502 28.0986C76.3142 28.3501 76.4406 28.523 76.6556 28.7902C77.0994 29.3342 77.8987 30.0483 78.5438 29.512C79.1909 28.9874 78.7927 28.2166 78.1634 27.4368L77.6742 26.8397L76.1502 28.0986ZM78.2181 26.418L78.721 27.0248C79.2123 27.6337 79.8965 28.1 80.4149 27.6705C80.8592 27.3024 80.7501 26.7373 80.0795 25.9281C79.8645 25.661 79.705 25.506 79.5296 25.3293L78.2181 26.418Z" fill="white"/>
<path d="M83.6081 35.0768C81.7796 36.1812 80.2278 35.3774 79.502 34.1763C78.7029 32.8298 79.0634 31.199 80.6304 30.2611C82.2852 29.2716 83.9058 29.7718 84.7227 31.1518C85.583 32.573 85.1204 34.1726 83.6081 35.0768ZM81.2075 31.1593C80.1225 31.8077 79.6865 32.9285 80.2126 33.8111C80.723 34.6721 81.9245 34.8429 83.0289 34.1668C83.8622 33.6711 84.6823 32.606 84.0396 31.5366C83.4085 30.4653 82.1481 30.5843 81.2075 31.1593Z" fill="white"/>
<path d="M90.32 37.8537L87.1261 38.8884L88.3211 42.6116L91.515 41.5768L91.8323 42.5804L84.1838 45.0488L83.8665 44.0452L87.4493 42.8828L86.2543 39.1597L82.6715 40.322L82.3562 39.3302L90.0047 36.8619L90.32 37.8537Z" fill="white"/>
<path d="M87.1514 46.4253C85.7545 46.6651 85.3059 47.642 85.4727 48.6837C85.5887 49.4299 85.7831 49.8587 86.0026 50.2224L85.2915 50.5147C85.0761 50.1747 84.7787 49.569 84.6461 48.6553C84.3791 46.889 85.3882 45.6577 87.1081 45.3989C88.828 45.1402 90.3349 45.9639 90.5836 47.6239C90.8688 49.4965 89.3045 50.2393 88.2558 50.395C88.0445 50.4313 87.8741 50.4241 87.7664 50.4304L87.1514 46.4253ZM88.3457 49.3702C89.0071 49.2809 89.9954 48.8437 89.8181 47.6701C89.6611 46.6147 88.6272 46.2935 87.8949 46.322L88.3457 49.3702Z" fill="white"/>
<path d="M90.924 56.2252L85.9479 56.2402L85.9417 56.8372L83.3348 56.7861L83.3378 55.9586L85.1666 55.9122L85.1547 51.9008L83.3214 51.8507L83.3243 51.0232L85.9384 50.9758L85.9491 51.4604C86.3188 51.7132 86.7135 51.9008 87.1354 52.0351C87.8515 52.2649 88.6296 52.3624 89.4404 52.3692L90.9385 52.3674L90.924 56.2252ZM89.1638 53.2923C88.402 53.2893 87.6592 53.1857 87.0236 53.0029C86.6293 52.8882 86.2738 52.7181 85.9515 52.5302L85.9634 55.2038L90.1307 55.1938L90.1175 53.2867L89.1638 53.2923Z" fill="white"/>
<path d="M90.7173 58.3289C90.7276 58.7406 90.689 59.5013 90.5872 60.1755C90.4499 61.1355 90.0792 62.7072 88.8033 62.5249C88.0977 62.4271 87.7397 61.8197 87.6848 61.148L87.6593 61.1402C87.4272 61.9706 86.8684 62.5165 86.0393 62.4034C84.5399 62.1865 84.6089 60.2653 84.7647 59.1318C84.8609 58.4951 84.9881 57.8286 85.0568 57.525L90.7173 58.3289ZM85.6175 58.6084C85.535 58.9023 85.499 59.1152 85.4578 59.4385C85.3601 60.1363 85.3743 61.2041 86.2053 61.329C87.0344 61.4421 87.3195 60.6391 87.4624 59.6417L87.5735 58.8807L85.6175 58.6084ZM88.2576 58.9943L88.1506 59.7789C88.0416 60.5517 88.1601 61.3826 88.8284 61.4747C89.3988 61.5592 89.7427 61.0988 89.8776 60.0541C89.9264 59.7051 89.9251 59.4865 89.9433 59.2401L88.2576 58.9943Z" fill="white"/>
<path d="M89.4969 65.5806L87.1642 64.8743C86.2853 64.6117 85.736 64.4384 84.9627 64.1577L84.9571 64.1951C85.5203 64.7308 85.8511 65.0389 86.3812 65.5925L88.723 68.1823L88.3696 69.3618L82.853 67.7062L83.1352 66.7457L85.4796 67.4499C86.384 67.7203 86.8471 67.8841 87.7224 68.196L87.728 68.1585C87.1235 67.5934 86.757 67.2185 86.2861 66.7277C85.5823 65.9364 84.6995 65.0177 83.905 64.1203L84.2487 62.9546L89.7791 64.62L89.4969 65.5806Z" fill="white"/>
<path d="M87.4481 71.8074L84.3452 72.3887L84.2465 72.588L86.4957 73.7223L86.0467 74.6265L83.7975 73.4922L83.7085 73.6778L85.1158 76.5256L84.5778 77.6153L83.2387 74.3909C82.7612 75.1297 82.0772 75.3687 81.1051 75.268C80.5132 75.1993 79.8801 75.1013 79.3728 75.1032L79.8392 74.1595C80.2348 74.1403 80.7307 74.2133 81.2619 74.2802C82.2691 74.3749 82.7528 74.0243 83.0954 73.3451L83.1768 73.1852L80.8903 72.0452L81.3393 71.141L83.6258 72.2811L83.7051 72.1093C84.0631 71.3789 84.0127 70.8037 83.3287 70.0576C82.9699 69.657 82.6329 69.3134 82.394 68.9774L82.841 68.0614C83.1549 68.4819 83.606 68.9274 84.0062 69.3574C84.6764 70.0938 84.9155 70.7825 84.6109 71.6133L87.9764 70.7314L87.4481 71.8074Z" fill="white"/>
<path d="M83.1397 79.5889L81.1865 78.1364C80.4508 77.5817 79.9925 77.2347 79.3588 76.7111L79.3394 76.7387C79.6881 77.4329 79.902 77.834 80.2058 78.548L81.5351 81.786L80.8104 82.7738L76.1703 79.3259L76.7687 78.5178L78.7357 79.9801C79.4969 80.5426 79.8767 80.8545 80.595 81.4487L80.6144 81.421C80.2341 80.6837 80.006 80.1998 79.7419 79.5763C79.3445 78.5986 78.8283 77.4224 78.3851 76.3188L79.1001 75.3447L83.7401 78.7926L83.1397 79.5889Z" fill="white"/>
<path d="M79.3996 84.415L78.4787 85.315L75.6957 83.9563C75.2969 83.7451 74.6232 83.4107 74.2086 83.1778L74.1872 83.1937C74.3893 83.5968 74.8077 84.4858 75.0816 85.0955L76.1693 87.56L75.2386 88.4738L70.925 84.605L71.6376 83.8989L73.6541 85.7905C74.1129 86.2104 74.6583 86.7127 75.1645 87.1974L75.1839 87.1698C74.9303 86.6782 74.7104 86.2416 74.3332 85.3821L73.0903 82.5063L73.6395 81.9742L76.3577 83.3075C76.8625 83.5736 77.6249 84.0021 78.1083 84.284L78.1395 84.2543C77.6782 83.7498 77.1696 83.1803 76.7594 82.6913L74.9554 80.6294L75.6485 79.951L79.3996 84.415Z" fill="white"/>
<path d="M67.6241 90.4382C66.4131 88.6637 67.1048 87.0613 68.2614 86.2668C69.5467 85.3772 71.1874 85.6429 72.2206 87.156C73.3169 88.7556 72.9135 90.418 71.595 91.3254C70.2336 92.2645 68.6236 91.8963 67.6241 90.4382ZM71.3626 87.7898C70.6514 86.7443 69.5094 86.3566 68.6551 86.9411C67.834 87.5077 67.7393 88.7158 68.48 89.7927C69.0312 90.6102 70.1381 91.3566 71.164 90.6454C72.192 89.946 71.977 88.6937 71.3626 87.7898Z" fill="white"/>
<path d="M61.6088 90.3886C61.7954 90.1377 62.249 89.6828 62.9402 89.3452C64.4984 88.5669 66.0469 89.1403 66.8279 90.7332C67.6227 92.3359 67.1059 94.0421 65.413 94.88C64.8565 95.158 64.2951 95.2665 63.9797 95.2598L63.8358 94.4211C64.1276 94.4318 64.5308 94.3869 65.0423 94.1288C66.2217 93.5372 66.4281 92.3464 65.9027 91.2569C65.3101 90.0573 64.1721 89.6932 63.149 90.2094C62.614 90.4715 62.3299 90.7878 62.1199 91.0428L61.6088 90.3886Z" fill="white"/>
<path d="M58.8411 97.2854L58.572 96.4924L60.2703 95.8968L58.6447 91.2138L59.6258 90.8752L61.2514 95.5581L62.9497 94.9625L63.2188 95.7555L58.8411 97.2854Z" fill="white"/>
<path d="M56.7537 97.8018L56.2695 95.4039C56.0899 94.4983 55.9808 93.9332 55.8644 93.1141L55.8292 93.1201C55.6319 93.8715 55.513 94.3054 55.2765 95.0392L54.113 98.3281L52.9101 98.5711L51.7524 92.8835L52.7324 92.6788L53.2185 95.0885C53.4022 96.0177 53.4854 96.5021 53.6201 97.4276L53.6553 97.4215C53.8679 96.6188 54.0216 96.106 54.2274 95.4747C54.5898 94.4882 54.984 93.2652 55.3827 92.1386L56.5622 91.8997L57.7198 97.5873L56.7537 97.8018Z" fill="white"/>
<path d="M40.0007 13.092C40.3832 13.0263 40.6397 12.661 40.5736 12.2761C40.5075 11.8911 40.1439 11.6323 39.7614 11.6979C39.3789 11.7636 39.1224 12.1289 39.1885 12.5138C39.2546 12.8988 39.6182 13.1576 40.0007 13.092Z" fill="white"/>
</g>
<defs>
<clipPath id="clip0_440_4350">
<rect width="85.7602" height="91.8138" fill="white" transform="translate(0 14.5098) rotate(-9.74076)"/>
</clipPath>
</defs>
</svg>
